# xmcd
#
# Track frame offsets: 
#        150
#        18732
#        42385
#        66770
#        83642
#        105945
#        123830
#        146210
#        170572
#        191025
#
# Disc length: 2826 seconds
#
# Revision: 0
# Processed by: cddbd v1.5.2PL0 Copyright (c) Steve Scherf et al.
# Submitted via: ExactAudioCopy v1.0b3
#
DISCID=870b080a
DTITLE=Tuan Vu - Khu Pho Ngay Xua
DYEAR=1997
DGENRE=
TTITLE0=Khu pho ngay xua
TTITLE1=Moti mai gia tu vu khi
TTITLE2=Han Do Ban
TTITLE3=Chin thang quan truong
TTITLE4=Ga chieu pho nho
TTITLE5=Do que huong ta
TTITLE6=Vinh biet
TTITLE7=Nua dem ngoai pho
TTITLE8=Mot lan dang do
TTITLE9=Gui nguoi dau gio
EXTD=
EXTT0=
EXTT1=
EXTT2=
EXTT3=
EXTT4=
EXTT5=
EXTT6=
EXTT7=
EXTT8=
EXTT9=
PLAYORDER=
